<?xml version="1.0" encoding="UTF-8" standalone="no"?>
<!-- Created with Inkscape (http://www.inkscape.org/) -->

<svg
   xmlns:ns0="http://www.iki.fi/pav/software/textext/"
   xmlns:dc="http://purl.org/dc/elements/1.1/"
   xmlns:cc="http://creativecommons.org/ns#"
   xmlns:rdf="http://www.w3.org/1999/02/22-rdf-syntax-ns#"
   xmlns:svg="http://www.w3.org/2000/svg"
   xmlns="http://www.w3.org/2000/svg"
   xmlns:sodipodi="http://sodipodi.sourceforge.net/DTD/sodipodi-0.dtd"
   xmlns:inkscape="http://www.inkscape.org/namespaces/inkscape"
   sodipodi:docname="modelSimple.svg"
   width="302.58072"
   height="252.17944"
   id="svg2"
   version="1.1"
   inkscape:version="0.48.4 r9939">
  <sodipodi:namedview
     id="base"
     pagecolor="#ffffff"
     bordercolor="#666666"
     borderopacity="1.0"
     inkscape:pageopacity="0.0"
     inkscape:pageshadow="2"
     inkscape:zoom="1.4142136"
     inkscape:cx="151.51533"
     inkscape:cy="104.5165"
     inkscape:document-units="px"
     inkscape:current-layer="svg2"
     showgrid="false"
     inkscape:window-width="1366"
     inkscape:window-height="744"
     inkscape:window-x="0"
     inkscape:window-y="24"
     inkscape:window-maximized="1"
     units="cm"
     fit-margin-top="0"
     fit-margin-left="0"
     fit-margin-right="0"
     fit-margin-bottom="0" />
  <defs
     id="defs4">
    <marker
       style="overflow:visible"
       id="Arrow1Mend"
       refX="0"
       refY="0"
       orient="auto"
       inkscape:stockid="Arrow1Mend">
      <path
         inkscape:connector-curvature="0"
         transform="matrix(-0.4,0,0,-0.4,-4,0)"
         style="fill-rule:evenodd;stroke:#000000;stroke-width:1pt"
         d="M 0,0 5,-5 -12.5,0 5,5 0,0 z"
         id="path3931" />
    </marker>
    <marker
       style="overflow:visible"
       id="Arrow1Lend"
       refX="0"
       refY="0"
       orient="auto"
       inkscape:stockid="Arrow1Lend">
      <path
         inkscape:connector-curvature="0"
         transform="matrix(-0.8,0,0,-0.8,-10,0)"
         style="fill-rule:evenodd;stroke:#000000;stroke-width:1pt"
         d="M 0,0 5,-5 -12.5,0 5,5 0,0 z"
         id="path3925" />
    </marker>
    <marker
       style="overflow:visible"
       id="Arrow1Lend-4"
       refX="0"
       refY="0"
       orient="auto"
       inkscape:stockid="Arrow1Lend">
      <path
         transform="matrix(-0.8,0,0,-0.8,-10,0)"
         style="fill-rule:evenodd;stroke:#000000;stroke-width:1pt"
         d="M 0,0 5,-5 -12.5,0 5,5 0,0 z"
         id="path3925-6"
         inkscape:connector-curvature="0" />
    </marker>
    <marker
       style="overflow:visible"
       id="Arrow1Lend-7"
       refX="0"
       refY="0"
       orient="auto"
       inkscape:stockid="Arrow1Lend">
      <path
         transform="matrix(-0.8,0,0,-0.8,-10,0)"
         style="fill-rule:evenodd;stroke:#000000;stroke-width:1pt"
         d="M 0,0 5,-5 -12.5,0 5,5 0,0 z"
         id="path3925-2"
         inkscape:connector-curvature="0" />
    </marker>
    <marker
       inkscape:stockid="Arrow1Mend"
       orient="auto"
       refY="0"
       refX="0"
       id="Arrow1Mend-9"
       style="overflow:visible">
      <path
         id="path3931-5"
         d="M 0,0 5,-5 -12.5,0 5,5 0,0 z"
         style="fill-rule:evenodd;stroke:#000000;stroke-width:1pt"
         transform="matrix(-0.4,0,0,-0.4,-4,0)"
         inkscape:connector-curvature="0" />
    </marker>
    <marker
       inkscape:stockid="Arrow1Mend"
       orient="auto"
       refY="0"
       refX="0"
       id="marker8573"
       style="overflow:visible">
      <path
         id="path8575"
         d="M 0,0 5,-5 -12.5,0 5,5 0,0 z"
         style="fill-rule:evenodd;stroke:#000000;stroke-width:1pt"
         transform="matrix(-0.4,0,0,-0.4,-4,0)"
         inkscape:connector-curvature="0" />
    </marker>
    <marker
       inkscape:stockid="Arrow1Mend"
       orient="auto"
       refY="0"
       refX="0"
       id="Arrow1Mend-4"
       style="overflow:visible">
      <path
         id="path3931-7"
         d="M 0,0 5,-5 -12.5,0 5,5 0,0 z"
         style="fill-rule:evenodd;stroke:#000000;stroke-width:1pt"
         transform="matrix(-0.4,0,0,-0.4,-4,0)"
         inkscape:connector-curvature="0" />
    </marker>
    <marker
       inkscape:stockid="Arrow1Mend"
       orient="auto"
       refY="0"
       refX="0"
       id="marker8621"
       style="overflow:visible">
      <path
         id="path8623"
         d="M 0,0 5,-5 -12.5,0 5,5 0,0 z"
         style="fill-rule:evenodd;stroke:#000000;stroke-width:1pt"
         transform="matrix(-0.4,0,0,-0.4,-4,0)"
         inkscape:connector-curvature="0" />
    </marker>
    <marker
       style="overflow:visible"
       id="Arrow1Mend-2"
       refX="0"
       refY="0"
       orient="auto"
       inkscape:stockid="Arrow1Mend">
      <path
         inkscape:connector-curvature="0"
         transform="matrix(-0.4,0,0,-0.4,-4,0)"
         style="fill-rule:evenodd;stroke:#000000;stroke-width:1pt"
         d="M 0,0 5,-5 -12.5,0 5,5 0,0 z"
         id="path3931-72" />
    </marker>
    <marker
       style="overflow:visible"
       id="marker3956"
       refX="0"
       refY="0"
       orient="auto"
       inkscape:stockid="Arrow1Mend">
      <path
         inkscape:connector-curvature="0"
         transform="matrix(-0.4,0,0,-0.4,-4,0)"
         style="fill-rule:evenodd;stroke:#000000;stroke-width:1pt"
         d="M 0,0 5,-5 -12.5,0 5,5 0,0 z"
         id="path3958" />
    </marker>
    <marker
       inkscape:stockid="Arrow1Mend"
       orient="auto"
       refY="0"
       refX="0"
       id="Arrow1Mend-98"
       style="overflow:visible">
      <path
         id="path3931-3"
         d="M 0,0 5,-5 -12.5,0 5,5 0,0 z"
         style="fill-rule:evenodd;stroke:#000000;stroke-width:1pt"
         transform="matrix(-0.4,0,0,-0.4,-4,0)"
         inkscape:connector-curvature="0" />
    </marker>
    <marker
       inkscape:stockid="Arrow1Mend"
       orient="auto"
       refY="0"
       refX="0"
       id="marker3100"
       style="overflow:visible">
      <path
         id="path3102"
         d="M 0,0 5,-5 -12.5,0 5,5 0,0 z"
         style="fill-rule:evenodd;stroke:#000000;stroke-width:1pt"
         transform="matrix(-0.4,0,0,-0.4,-4,0)"
         inkscape:connector-curvature="0" />
    </marker>
    <marker
       style="overflow:visible"
       id="Arrow1Lstart"
       refX="0"
       refY="0"
       orient="auto"
       inkscape:stockid="Arrow1Lstart">
      <path
         inkscape:connector-curvature="0"
         transform="matrix(0.8,0,0,0.8,10,0)"
         style="fill-rule:evenodd;stroke:#000000;stroke-width:1pt"
         d="M 0,0 5,-5 -12.5,0 5,5 0,0 z"
         id="path4726" />
    </marker>
    <marker
       inkscape:stockid="Arrow1Lend"
       orient="auto"
       refY="0"
       refX="0"
       id="Arrow1Lend-7-1"
       style="overflow:visible">
      <path
         inkscape:connector-curvature="0"
         id="path3925-2-8"
         d="M 0,0 5,-5 -12.5,0 5,5 0,0 z"
         style="fill-rule:evenodd;stroke:#000000;stroke-width:1pt"
         transform="matrix(-0.8,0,0,-0.8,-10,0)" />
    </marker>
    <marker
       style="overflow:visible"
       id="marker3129"
       refX="0"
       refY="0"
       orient="auto"
       inkscape:stockid="Arrow1Lstart">
      <path
         inkscape:connector-curvature="0"
         transform="matrix(0.8,0,0,0.8,10,0)"
         style="fill-rule:evenodd;stroke:#000000;stroke-width:1pt"
         d="M 0,0 5,-5 -12.5,0 5,5 0,0 z"
         id="path3131" />
    </marker>
    <marker
       inkscape:stockid="Arrow1Lend"
       orient="auto"
       refY="0"
       refX="0"
       id="marker3133"
       style="overflow:visible">
      <path
         inkscape:connector-curvature="0"
         id="path3135"
         d="M 0,0 5,-5 -12.5,0 5,5 0,0 z"
         style="fill-rule:evenodd;stroke:#000000;stroke-width:1pt"
         transform="matrix(-0.8,0,0,-0.8,-10,0)" />
    </marker>
    <marker
       style="overflow:visible"
       id="Arrow1Mend-3"
       refX="0"
       refY="0"
       orient="auto"
       inkscape:stockid="Arrow1Mend">
      <path
         inkscape:connector-curvature="0"
         transform="matrix(-0.4,0,0,-0.4,-4,0)"
         style="fill-rule:evenodd;stroke:#000000;stroke-width:1pt"
         d="M 0,0 5,-5 -12.5,0 5,5 0,0 z"
         id="path3931-6" />
    </marker>
    <marker
       style="overflow:visible"
       id="marker4068"
       refX="0"
       refY="0"
       orient="auto"
       inkscape:stockid="Arrow1Mend">
      <path
         inkscape:connector-curvature="0"
         transform="matrix(-0.4,0,0,-0.4,-4,0)"
         style="fill-rule:evenodd;stroke:#000000;stroke-width:1pt"
         d="M 0,0 5,-5 -12.5,0 5,5 0,0 z"
         id="path4070" />
    </marker>
    <marker
       style="overflow:visible"
       id="marker4072"
       refX="0"
       refY="0"
       orient="auto"
       inkscape:stockid="Arrow1Mend">
      <path
         inkscape:connector-curvature="0"
         transform="matrix(-0.4,0,0,-0.4,-4,0)"
         style="fill-rule:evenodd;stroke:#000000;stroke-width:1pt"
         d="M 0,0 5,-5 -12.5,0 5,5 0,0 z"
         id="path4074" />
    </marker>
    <marker
       style="overflow:visible"
       id="marker4076"
       refX="0"
       refY="0"
       orient="auto"
       inkscape:stockid="Arrow1Mend">
      <path
         inkscape:connector-curvature="0"
         transform="matrix(-0.4,0,0,-0.4,-4,0)"
         style="fill-rule:evenodd;stroke:#000000;stroke-width:1pt"
         d="M 0,0 5,-5 -12.5,0 5,5 0,0 z"
         id="path4078" />
    </marker>
    <marker
       style="overflow:visible"
       id="marker4080"
       refX="0"
       refY="0"
       orient="auto"
       inkscape:stockid="Arrow1Mend">
      <path
         inkscape:connector-curvature="0"
         transform="matrix(-0.4,0,0,-0.4,-4,0)"
         style="fill-rule:evenodd;stroke:#000000;stroke-width:1pt"
         d="M 0,0 5,-5 -12.5,0 5,5 0,0 z"
         id="path4082" />
    </marker>
    <marker
       style="overflow:visible"
       id="marker4084"
       refX="0"
       refY="0"
       orient="auto"
       inkscape:stockid="Arrow1Mend">
      <path
         inkscape:connector-curvature="0"
         transform="matrix(-0.4,0,0,-0.4,-4,0)"
         style="fill-rule:evenodd;stroke:#000000;stroke-width:1pt"
         d="M 0,0 5,-5 -12.5,0 5,5 0,0 z"
         id="path4086" />
    </marker>
    <marker
       style="overflow:visible"
       id="marker4088"
       refX="0"
       refY="0"
       orient="auto"
       inkscape:stockid="Arrow1Mend">
      <path
         inkscape:connector-curvature="0"
         transform="matrix(-0.4,0,0,-0.4,-4,0)"
         style="fill-rule:evenodd;stroke:#000000;stroke-width:1pt"
         d="M 0,0 5,-5 -12.5,0 5,5 0,0 z"
         id="path4090" />
    </marker>
  </defs>
  <metadata
     id="metadata7">
    <rdf:RDF>
      <cc:Work
         rdf:about="">
        <dc:format>image/svg+xml</dc:format>
        <dc:type
           rdf:resource="http://purl.org/dc/dcmitype/StillImage" />
        <dc:title />
      </cc:Work>
    </rdf:RDF>
  </metadata>
  <g
     transform="translate(-150.86371,-139.86372)"
     style="display:inline"
     inkscape:label="Pneus"
     id="layer4"
     inkscape:groupmode="layer" />
  <text
     sodipodi:linespacing="125%"
     id="text3116"
     y="307.17569"
     x="36.519585"
     style="font-size:40px;font-style:normal;font-weight:normal;line-height:125%;letter-spacing:0px;word-spacing:0px;fill:#000000;fill-opacity:1;stroke:none;font-family:Sans"
     xml:space="preserve"><tspan
       y="307.17569"
       x="36.519585"
       id="tspan3118"
       sodipodi:role="line" /></text>
  <g
     inkscape:label="bloco"
     id="layer1"
     inkscape:groupmode="layer"
     transform="translate(-150.86371,-51.281023)" />
  <g
     style="display:inline"
     inkscape:label="vet ex"
     id="layer2"
     inkscape:groupmode="layer"
     transform="translate(-150.86371,-51.281023)" />
  <text
     xml:space="preserve"
     style="font-size:25.27911758px;font-style:normal;font-weight:normal;line-height:100%;letter-spacing:0px;word-spacing:0px;fill:#000000;fill-opacity:1;stroke:none;font-family:Sans"
     x="-5.1774769"
     y="251.96341"
     id="text3528-6"
     sodipodi:linespacing="100%"
     inkscape:transform-center-x="-3.7037333"
     transform="matrix(0.9991994,-0.04000706,0.04000706,0.9991994,0,0)"
     inkscape:transform-center-y="-0.14827846"><tspan
       sodipodi:role="line"
       id="tspan3530-8"
       x="-5.1774769"
       y="251.96341"
       style="font-size:17.69537735px;line-height:100%">O</tspan></text>
  <path
     sodipodi:type="arc"
     id="path3458-0-9-3"
     sodipodi:cx="161"
     sodipodi:cy="94.763763"
     sodipodi:rx="7"
     sodipodi:ry="7"
     d="m 168,94.763763 a 7,7 0 1 1 -14,0 7,7 0 1 1 14,0 z"
     transform="matrix(0.90015113,-0.06943311,0.06943311,0.90015113,-132.03264,152.23162)" />
  <path
     inkscape:connector-curvature="0"
     id="path5959-0-3-8-0"
     d="m 20.836193,226.52287 53.506259,-0.0121"
     style="fill:none;stroke:#000000;stroke-width:2;stroke-linecap:butt;stroke-linejoin:miter;stroke-miterlimit:4;stroke-opacity:1;stroke-dasharray:none;marker-end:url(#Arrow1Mend)" />
  <path
     inkscape:connector-curvature="0"
     id="path5959-0-3-5-9-0"
     d="m 19.187855,224.95656 0.129608,-53.50612"
     style="fill:none;stroke:#000000;stroke-width:2;stroke-linecap:butt;stroke-linejoin:miter;stroke-miterlimit:4;stroke-opacity:1;stroke-dasharray:none;marker-end:url(#Arrow1Mend)" />
  <g
     style="font-style:normal;font-variant:normal;font-weight:normal;font-stretch:normal;letter-spacing:normal;word-spacing:normal;text-anchor:start;fill:none;stroke:#000000;stroke-linecap:butt;stroke-linejoin:miter;stroke-miterlimit:10.43299961;stroke-opacity:1;stroke-dasharray:none;stroke-dashoffset:0"
     ns0:preamble=""
     ns0:text="\\[\\mathbf{j}\\]"
     word-spacing="normal"
     letter-spacing="normal"
     font-size-adjust="none"
     font-stretch="normal"
     font-weight="normal"
     font-variant="normal"
     font-style="normal"
     stroke-miterlimit="10.433"
     xml:space="preserve"
     transform="matrix(1.861495,0,0,-1.861495,-731.53031,1499.3195)"
     id="g3267"><path
       style="fill:#000000;stroke-width:0"
       inkscape:connector-curvature="0"
       id="path3269"
       d="m 394.36,711.52 v -0.47 c 0.17,0 0.39,0 0.54,-0.02 0.22,-0.04 0.22,-0.17 0.22,-0.38 v -3.94 c 0,-0.5 -0.15,-1.21 -0.75,-1.21 -0.16,0 -0.24,0.02 -0.39,0.05 0.19,0.14 0.24,0.35 0.24,0.5 0,0.35 -0.26,0.62 -0.61,0.62 -0.38,0 -0.63,-0.27 -0.63,-0.63 0,-0.56 0.6,-0.9 1.41,-0.9 0.86,0 1.8,0.52 1.8,1.57 v 4.88 z" /><path
       style="fill:#000000;stroke-width:0"
       inkscape:connector-curvature="0"
       id="path3271"
       d="m 396.19,713.25 0,0.04 0,0.04 -0.01,0.04 0,0.04 -0.01,0.04 -0.01,0.03 -0.01,0.04 -0.02,0.04 -0.01,0.03 -0.02,0.03 -0.02,0.04 -0.02,0.03 -0.02,0.03 -0.02,0.03 -0.03,0.02 -0.02,0.03 -0.03,0.03 -0.03,0.02 -0.03,0.02 -0.03,0.03 -0.03,0.02 -0.03,0.02 -0.04,0.01 -0.03,0.02 -0.04,0.01 -0.03,0.01 -0.04,0.01 -0.04,0.01 -0.03,0.01 -0.04,0 -0.04,0.01 -0.04,0 c -0.43,0 -0.78,-0.35 -0.78,-0.78 0,-0.42 0.35,-0.77 0.78,-0.77 0.43,0 0.77,0.35 0.77,0.77 z" /></g>  <g
     id="g3512"
     transform="matrix(1.861495,0,0,-1.861495,-667.37901,1563.636)"
     xml:space="preserve"
     stroke-miterlimit="10.433"
     font-style="normal"
     font-variant="normal"
     font-weight="normal"
     font-stretch="normal"
     font-size-adjust="none"
     letter-spacing="normal"
     word-spacing="normal"
     ns0:text="\\[\\mathbf{i}\\]"
     ns0:preamble=""
     style="font-style:normal;font-variant:normal;font-weight:normal;font-stretch:normal;letter-spacing:normal;word-spacing:normal;text-anchor:start;fill:none;stroke:#000000;stroke-linecap:butt;stroke-linejoin:miter;stroke-miterlimit:10.43299961;stroke-opacity:1;stroke-dasharray:none;stroke-dashoffset:0"><path
       style="fill:#000000;stroke-width:0"
       inkscape:connector-curvature="0"
       d="m 395.92,711.59 -1.73,-0.07 v -0.47 c 0.59,0 0.66,0 0.66,-0.39 v -3.07 h -0.69 v -0.47 c 0.31,0.02 0.8,0.04 1.22,0.04 0.3,0 0.8,-0.02 1.16,-0.04 v 0.47 h -0.62 z"
       id="path3514" /><path
       style="fill:#000000;stroke-width:0"
       inkscape:connector-curvature="0"
       d="m 396.02,713.25 0,0.04 0,0.04 -0.01,0.04 0,0.04 -0.01,0.04 -0.01,0.04 -0.01,0.03 -0.02,0.04 -0.01,0.03 -0.02,0.04 -0.02,0.03 -0.02,0.03 -0.02,0.03 -0.03,0.03 -0.02,0.03 -0.03,0.03 -0.02,0.02 -0.03,0.02 -0.03,0.03 -0.03,0.02 -0.03,0.02 -0.04,0.02 -0.03,0.01 -0.03,0.02 -0.04,0.01 -0.04,0.01 -0.03,0.02 -0.04,0 -0.04,0.01 -0.03,0.01 -0.04,0 -0.04,0 c -0.43,0 -0.78,-0.35 -0.78,-0.78 0,-0.42 0.35,-0.77 0.78,-0.77 0.42,0 0.77,0.34 0.77,0.77 z"
       id="path3516" /></g>  <path
     style="fill:none;stroke:#000000;stroke-width:0.5;stroke-linecap:butt;stroke-linejoin:miter;stroke-miterlimit:4;stroke-opacity:1;stroke-dasharray:none;stroke-dashoffset:0;marker-start:url(#Arrow1Lstart);marker-end:url(#Arrow1Lend-7)"
     d="m 26.390324,226.44369 128.030586,0"
     id="path5957-9"
     inkscape:connector-curvature="0" />
  <path
     inkscape:connector-curvature="0"
     id="path3692"
     d="m 155.25814,143.19802 0,82.72595"
     style="fill:none;stroke:#000000;stroke-width:0.5;stroke-linecap:butt;stroke-linejoin:miter;stroke-miterlimit:4;stroke-opacity:1;stroke-dasharray:none;stroke-dashoffset:0;marker-start:url(#Arrow1Lstart);marker-end:url(#Arrow1Lend-7)" />
  <g
     style="font-style:normal;font-variant:normal;font-weight:normal;font-stretch:normal;letter-spacing:normal;word-spacing:normal;text-anchor:start;fill:none;stroke:#000000;stroke-linecap:butt;stroke-linejoin:miter;stroke-miterlimit:10.43299961;stroke-opacity:1;stroke-dasharray:none;stroke-dashoffset:0"
     ns0:preamble=""
     ns0:text="\\[x\\]"
     word-spacing="normal"
     letter-spacing="normal"
     font-size-adjust="none"
     font-stretch="normal"
     font-weight="normal"
     font-variant="normal"
     font-style="normal"
     stroke-miterlimit="10.433"
     xml:space="preserve"
     transform="matrix(1.9209038,0,0,-1.9209038,-647.72454,1580.2876)"
     id="g6742"><path
       style="fill:#000000;stroke-width:0"
       inkscape:connector-curvature="0"
       id="path6744"
       d="m 395.76,710.12 0.01,0.03 0.01,0.03 0.01,0.03 0.01,0.04 0.01,0.04 0.01,0.04 0.01,0.04 0.02,0.05 0.01,0.04 0.02,0.05 0.02,0.05 0.02,0.05 0.02,0.05 0.02,0.05 0.03,0.05 0.03,0.05 0.03,0.05 0.03,0.04 0.03,0.05 0.04,0.04 0.03,0.05 0.04,0.04 0.05,0.04 0.04,0.03 0.05,0.03 0.04,0.03 0.03,0.01 0.03,0.02 0.02,0.01 0.03,0.01 0.03,0.01 0.03,0 0.02,0.01 0.03,0.01 0.03,0 0.04,0 0.03,0.01 0.03,0 c 0.05,0 0.29,0 0.5,-0.13 -0.28,-0.05 -0.48,-0.3 -0.48,-0.54 0,-0.16 0.11,-0.35 0.38,-0.35 0.22,0 0.53,0.18 0.53,0.58 0,0.52 -0.58,0.66 -0.92,0.66 -0.58,0 -0.93,-0.53 -1.05,-0.76 -0.24,0.66 -0.78,0.76 -1.07,0.76 -1.03,0 -1.6,-1.29 -1.6,-1.53 0,-0.1 0.1,-0.1 0.12,-0.1 0.08,0 0.11,0.02 0.13,0.11 0.33,1.05 0.99,1.3 1.33,1.3 0.19,0 0.54,-0.09 0.54,-0.67 0,-0.31 -0.17,-0.97 -0.54,-2.36 -0.16,-0.62 -0.51,-1.04 -0.95,-1.04 -0.06,0 -0.28,0 -0.49,0.13 0.25,0.05 0.46,0.26 0.46,0.54 0,0.27 -0.21,0.35 -0.36,0.35 -0.3,0 -0.55,-0.26 -0.55,-0.58 0,-0.46 0.5,-0.65 0.94,-0.65 0.65,0 1.01,0.69 1.04,0.75 0.12,-0.37 0.48,-0.75 1.07,-0.75 1.03,0 1.6,1.28 1.6,1.53 0,0.1 -0.09,0.1 -0.12,0.1 -0.09,0 -0.11,-0.05 -0.13,-0.11 -0.33,-1.07 -1.01,-1.31 -1.33,-1.31 -0.38,0 -0.54,0.32 -0.54,0.66 0,0.22 0.06,0.44 0.17,0.87 z" /></g>  <g
     id="g6999"
     transform="matrix(1.9209038,0,0,-1.9209038,-593.28919,1552.0089)"
     xml:space="preserve"
     stroke-miterlimit="10.433"
     font-style="normal"
     font-variant="normal"
     font-weight="normal"
     font-stretch="normal"
     font-size-adjust="none"
     letter-spacing="normal"
     word-spacing="normal"
     ns0:text="\\[y\\]"
     ns0:preamble=""
     style="font-style:normal;font-variant:normal;font-weight:normal;font-stretch:normal;letter-spacing:normal;word-spacing:normal;text-anchor:start;fill:none;stroke:#000000;stroke-linecap:butt;stroke-linejoin:miter;stroke-miterlimit:10.43299961;stroke-opacity:1;stroke-dasharray:none;stroke-dashoffset:0"><path
       style="fill:#000000;stroke-width:0"
       inkscape:connector-curvature="0"
       d="m 397.5,710.91 0,0.01 0.01,0 0,0.01 0,0 0,0.02 0.01,0.01 0,0.01 0,0.01 0,0.01 0.01,0 0,0.01 0,0.01 0,0.01 0,0.01 0,0 0,0.01 0.01,0 0,0.01 0,0.01 0,0 0,0.01 0,0 0,0.01 0,0.01 0,0.01 0,0.01 0,0.01 0,0.01 0,0 0,0.01 c 0,0.18 -0.14,0.27 -0.29,0.27 -0.1,0 -0.26,-0.06 -0.35,-0.21 -0.01,-0.05 -0.09,-0.36 -0.13,-0.54 -0.07,-0.26 -0.14,-0.52 -0.2,-0.79 l -0.45,-1.79 c -0.04,-0.15 -0.47,-0.85 -1.13,-0.85 -0.5,0 -0.61,0.44 -0.61,0.81 0,0.46 0.17,1.07 0.51,1.95 0.16,0.4 0.19,0.51 0.19,0.71 0,0.45 -0.31,0.82 -0.81,0.82 -0.95,0 -1.31,-1.44 -1.31,-1.53 0,-0.1 0.09,-0.1 0.12,-0.1 0.09,0 0.1,0.02 0.15,0.18 0.27,0.93 0.67,1.23 1.01,1.23 0.08,0 0.25,0 0.25,-0.32 0,-0.25 -0.1,-0.51 -0.17,-0.7 -0.4,-1.05 -0.58,-1.62 -0.58,-2.08 0,-0.89 0.63,-1.18 1.21,-1.18 0.39,0 0.73,0.16 1.01,0.44 -0.13,-0.51 -0.25,-1 -0.65,-1.53 -0.26,-0.34 -0.63,-0.62 -1.09,-0.62 -0.14,0 -0.59,0.03 -0.76,0.41 0.16,0 0.29,0 0.43,0.12 0.1,0.09 0.2,0.22 0.2,0.41 0,0.31 -0.27,0.35 -0.37,0.35 -0.23,0 -0.56,-0.16 -0.56,-0.65 0,-0.49 0.44,-0.86 1.06,-0.86 1.02,0 2.05,0.9 2.33,2.02 z"
       id="path7001" /></g>  <path
     inkscape:connector-curvature="0"
     id="path3454"
     d="M 103.03024,168.25985 C 232.24569,89.451811 232.24569,89.451811 232.24569,89.451811"
     style="fill:none;stroke:#000000;stroke-width:0.8121689px;stroke-linecap:butt;stroke-linejoin:miter;stroke-opacity:1" />
  <path
     transform="matrix(0.87742581,-0.21264273,0.21264273,0.87742581,-6.4655087,87.935321)"
     d="m 168,94.763763 a 7,7 0 1 1 -14,0 7,7 0 1 1 14,0 z"
     sodipodi:ry="7"
     sodipodi:rx="7"
     sodipodi:cy="94.763763"
     sodipodi:cx="161"
     id="path3458-0-9"
     sodipodi:type="arc" />
  <path
     inkscape:connector-curvature="0"
     id="path3454-8"
     d="M 63.25251,108.64757 C 192.51706,29.020569 192.51706,29.020569 192.51706,29.020569"
     style="opacity:0.5;fill:#4d4d4d;stroke:#666666;stroke-width:0.85574192px;stroke-linecap:butt;stroke-linejoin:miter;stroke-opacity:1" />
  <path
     inkscape:connector-curvature="0"
     id="path4430-3"
     d="M 232.77966,89.344851 301.43384,45.53022"
     style="fill:none;stroke:#000000;stroke-width:0.903;stroke-linecap:butt;stroke-linejoin:miter;stroke-miterlimit:4;stroke-opacity:1;stroke-dasharray:0.903, 1.806;stroke-dashoffset:0" />
  <rect
     transform="matrix(0.60244799,-0.79815814,0.79815814,0.60244799,0,0)"
     y="234.02353"
     x="41.148922"
     height="10.852695"
     width="56.817032"
     id="rect5900-9"
     style="fill:none;stroke:#000000;stroke-width:3;stroke-miterlimit:4;stroke-opacity:1;stroke-dasharray:none;stroke-dashoffset:0" />
  <rect
     transform="matrix(0.85626381,-0.51653875,0.51653875,0.85626381,0,0)"
     y="191.96974"
     x="-25.298038"
     height="10.852695"
     width="56.817028"
     id="rect5900-6"
     style="fill:none;stroke:#000000;stroke-width:3;stroke-miterlimit:4;stroke-opacity:1;stroke-dasharray:none;stroke-dashoffset:0" />
  <path
     inkscape:connector-curvature="0"
     id="path5957"
     d="m 155.6041,137.09468 35.35212,0"
     style="fill:none;stroke:#000000;stroke-width:0.903;stroke-linecap:butt;stroke-linejoin:miter;stroke-miterlimit:4;stroke-opacity:1;stroke-dasharray:0.903, 1.806;stroke-dashoffset:0" />
  <path
     inkscape:connector-curvature="0"
     id="path5959"
     d="M 155.75341,136.6037 181.0841,82.514341"
     style="fill:none;stroke:#000000;stroke-width:0.902825;stroke-linecap:butt;stroke-linejoin:miter;stroke-miterlimit:4;stroke-opacity:1;stroke-dasharray:none;marker-end:url(#Arrow1Mend)" />
  <path
     inkscape:connector-curvature="0"
     id="path5959-0"
     d="M 232.86076,89.252521 276.91907,28.771913"
     style="fill:none;stroke:#000000;stroke-width:0.903;stroke-linecap:butt;stroke-linejoin:miter;stroke-miterlimit:4;stroke-opacity:1;stroke-dasharray:0.903, 1.806;stroke-dashoffset:0" />
  <path
     inkscape:connector-curvature="0"
     id="path5959-0-3"
     d="M 232.8423,88.580691 247.23178,25.9478"
     style="fill:none;stroke:#000000;stroke-width:0.902825;stroke-linecap:butt;stroke-linejoin:miter;stroke-miterlimit:4;stroke-opacity:1;stroke-dasharray:none;marker-end:url(#Arrow1Mend)" />
  <path
     inkscape:connector-curvature="0"
     id="path5959-7"
     d="m 103.93887,167.66577 17.71577,-51.90858"
     style="fill:none;stroke:#000000;stroke-width:0.902825;stroke-linecap:butt;stroke-linejoin:miter;stroke-miterlimit:4;stroke-opacity:1;stroke-dasharray:none;marker-end:url(#Arrow1Mend)" />
  <path
     transform="matrix(0.42968409,-0.67097612,0.71529935,0.31452674,-132.33363,217.55153)"
     sodipodi:open="true"
     sodipodi:end="0.60706608"
     sodipodi:start="0"
     d="m 227.68838,210.68896 a 59.220192,59.220192 0 0 1 -10.58116,33.78277"
     sodipodi:ry="59.220192"
     sodipodi:rx="59.220192"
     sodipodi:cy="210.68896"
     sodipodi:cx="168.46819"
     id="path8322-3-8"
     style="fill:none;stroke:#000000;stroke-width:1.15115058;stroke-miterlimit:4;stroke-opacity:1;stroke-dasharray:none;stroke-dashoffset:0"
     sodipodi:type="arc" />
  <path
     transform="matrix(0.17687575,-0.56811464,0.44117871,0.22776643,154.1429,336.86774)"
     sodipodi:open="true"
     sodipodi:end="0.64726994"
     sodipodi:start="0"
     d="M 534.57273,41.867226 A 60.104076,60.104076 0 0 1 522.41567,78.110633"
     sodipodi:ry="60.104076"
     sodipodi:rx="60.104076"
     sodipodi:cy="41.867226"
     sodipodi:cx="474.46866"
     id="path8971"
     style="fill:none;stroke:#000000;stroke-width:1.95006871;stroke-miterlimit:4;stroke-opacity:1;stroke-dasharray:none;stroke-dashoffset:0"
     sodipodi:type="arc" />
  <path
     inkscape:connector-curvature="0"
     id="path3786-4-3-7-68"
     d="m 112.8174,69.872881 c 6.47119,10.54155 6.47119,10.54155 6.47119,10.54155"
     style="opacity:0.5;fill:none;stroke:#666666;stroke-width:0.99458724px;stroke-linecap:butt;stroke-linejoin:miter;stroke-opacity:1" />
  <path
     inkscape:connector-curvature="0"
     id="path3786-4-3-7-2"
     d="m 188.80529,23.597948 c 6.4712,10.541547 6.4712,10.541547 6.4712,10.541547"
     style="opacity:0.5;fill:none;stroke:#666666;stroke-width:0.99458724px;stroke-linecap:butt;stroke-linejoin:miter;stroke-opacity:1" />
  <path
     transform="matrix(0.43436117,-0.10526666,0.10526666,0.43436117,24.099101,143.31884)"
     d="m 168,94.763763 a 7,7 0 1 1 -14,0 7,7 0 1 1 14,0 z"
     sodipodi:ry="7"
     sodipodi:rx="7"
     sodipodi:cy="94.763763"
     sodipodi:cx="161"
     id="path3458-0-9-3-1-3"
     sodipodi:type="arc" />
  <path
     transform="matrix(0.43436117,-0.10526666,0.10526666,0.43436117,152.71,65.120331)"
     d="m 168,94.763763 a 7,7 0 1 1 -14,0 7,7 0 1 1 14,0 z"
     sodipodi:ry="7"
     sodipodi:rx="7"
     sodipodi:cy="94.763763"
     sodipodi:cx="161"
     id="path3458-0-9-3-1-8"
     sodipodi:type="arc" />
  <path
     transform="matrix(0.08363097,-0.32274427,0.17174253,0.15716211,105.22456,260.29205)"
     sodipodi:open="true"
     sodipodi:end="1.1419173"
     sodipodi:start="0"
     d="M 520.78416,182.75826 A 50.381359,50.381359 0 0 1 491.35397,228.5767"
     sodipodi:ry="50.381359"
     sodipodi:rx="50.381359"
     sodipodi:cy="182.75826"
     sodipodi:cx="470.4028"
     id="path10762"
     style="fill:none;stroke:#000000;stroke-width:2.67691755;stroke-miterlimit:4;stroke-opacity:1;stroke-dasharray:none;stroke-dashoffset:0"
     sodipodi:type="arc" />
  <g
     style="font-style:normal;font-variant:normal;font-weight:normal;font-stretch:normal;letter-spacing:normal;word-spacing:normal;text-anchor:start;fill:none;stroke:#000000;stroke-linecap:butt;stroke-linejoin:miter;stroke-miterlimit:10.43299961;stroke-opacity:1;stroke-dasharray:none;stroke-dashoffset:0"
     ns0:preamble="/home/andre/Copy/Inkscape/preamble.ini"
     ns0:text="\\[\\delta\\]"
     word-spacing="normal"
     letter-spacing="normal"
     font-size-adjust="none"
     font-stretch="normal"
     font-weight="normal"
     font-variant="normal"
     font-style="normal"
     stroke-miterlimit="10.433"
     xml:space="preserve"
     transform="matrix(2.0370147,0,0,-2.0370147,-519.91013,1490.5142)"
     id="g12401"><path
       id="path12403"
       d="m 395.51,711.47 -0.11,-0.03 -0.12,-0.04 -0.11,-0.04 -0.11,-0.05 -0.11,-0.05 -0.1,-0.06 -0.11,-0.06 -0.1,-0.07 -0.1,-0.07 -0.09,-0.07 -0.09,-0.08 -0.09,-0.08 -0.09,-0.09 -0.08,-0.08 -0.08,-0.1 -0.08,-0.09 -0.07,-0.1 -0.07,-0.1 -0.07,-0.1 -0.06,-0.1 -0.05,-0.11 -0.06,-0.11 -0.04,-0.1 -0.05,-0.11 -0.04,-0.11 -0.03,-0.12 -0.03,-0.11 -0.02,-0.11 -0.02,-0.12 -0.02,-0.11 0,-0.11 -0.01,-0.12 c 0,-0.95 0.64,-1.66 1.58,-1.66 v 0.21 c -0.55,0 -0.96,0.42 -0.96,1.18 0,0.62 0.37,2.49 1.71,2.85 h 0 c 0.25,-0.46 0.55,-1 0.55,-1.71 0,-0.66 -0.38,-2.32 -1.3,-2.32 v -0.21 c 1.16,0 1.98,1.56 1.98,2.93 0,0.9 -0.39,1.4 -0.73,1.84 -0.36,0.45 -0.95,1.2 -0.95,1.63 0,0.22 0.2,0.46 0.55,0.46 0.3,0 0.5,-0.13 0.71,-0.27 0.2,-0.12 0.39,-0.25 0.54,-0.25 0.25,0 0.4,0.24 0.4,0.4 0,0.22 -0.16,0.25 -0.52,0.33 -0.51,0.11 -0.65,0.11 -0.81,0.11 -0.78,0 -1.13,-0.43 -1.13,-1.03 0,-0.53 0.28,-1.09 0.59,-1.69 z"
       inkscape:connector-curvature="0"
       style="fill:#000000;stroke-width:0" /></g>  <g
     style="font-style:normal;font-variant:normal;font-weight:normal;font-stretch:normal;letter-spacing:normal;word-spacing:normal;text-anchor:start;fill:none;stroke:#000000;stroke-linecap:butt;stroke-linejoin:miter;stroke-miterlimit:10.43299961;stroke-opacity:1;stroke-dasharray:none;stroke-dashoffset:0"
     ns0:preamble="/home/andre/Copy/Inkscape/preamble.ini"
     ns0:text="\\[\\psi\\]"
     word-spacing="normal"
     letter-spacing="normal"
     font-size-adjust="none"
     font-stretch="normal"
     font-weight="normal"
     font-variant="normal"
     font-style="normal"
     stroke-miterlimit="10.433"
     xml:space="preserve"
     transform="matrix(1.8198039,0,0,-1.8198039,-518.37661,1428.4659)"
     id="g12920"><path
       id="path12922"
       d="m 396.66,713.76 0,0 0,0.01 0,0.01 0.01,0.01 0,0 0,0.01 0,0.01 0.01,0.01 0,0.01 0,0.01 0,0.01 0,0.01 0.01,0.01 0,0.01 0,0.01 0,0.01 0,0 0,0.01 0,0 c 0,0.1 -0.07,0.11 -0.12,0.11 -0.1,0 -0.11,-0.02 -0.15,-0.2 l -1.65,-6.57 c -0.76,0.09 -1.13,0.46 -1.13,1.12 0,0.2 0,0.45 0.53,1.84 0.04,0.12 0.11,0.29 0.11,0.49 0,0.45 -0.32,0.82 -0.81,0.82 -0.95,0 -1.32,-1.44 -1.32,-1.53 0,-0.1 0.1,-0.1 0.12,-0.1 0.1,0 0.11,0.02 0.16,0.18 0.27,0.94 0.67,1.23 1.01,1.23 0.08,0 0.24,0 0.24,-0.32 0,-0.26 -0.1,-0.51 -0.22,-0.86 -0.48,-1.25 -0.48,-1.51 -0.48,-1.67 0,-0.95 0.77,-1.36 1.73,-1.41 -0.08,-0.36 -0.08,-0.38 -0.22,-0.91 -0.03,-0.11 -0.23,-0.91 -0.23,-0.94 0,-0.01 0,-0.1 0.12,-0.1 0.02,0 0.07,0 0.09,0.04 0.03,0.02 0.09,0.27 0.12,0.41 l 0.38,1.48 c 0.37,0 1.24,0 2.18,1.06 0.4,0.46 0.61,0.89 0.72,1.19 0.09,0.25 0.31,1.11 0.31,1.55 0,0.56 -0.27,0.7 -0.44,0.7 -0.25,0 -0.49,-0.26 -0.49,-0.48 0,-0.13 0.06,-0.19 0.15,-0.27 0.11,-0.11 0.35,-0.37 0.35,-0.84 0,-0.64 -0.51,-1.45 -0.86,-1.81 -0.88,-0.89 -1.51,-0.89 -1.87,-0.89 z"
       inkscape:connector-curvature="0"
       style="fill:#000000;stroke-width:0" /></g>  <path
     transform="matrix(-0.06830261,-0.64047701,0.46919876,0.01733937,261.0471,383.0805)"
     sodipodi:open="true"
     sodipodi:end="0.64726994"
     sodipodi:start="0"
     d="M 534.57273,41.867226 A 60.104076,60.104076 0 0 1 522.41567,78.110633"
     sodipodi:ry="60.104076"
     sodipodi:rx="60.104076"
     sodipodi:cy="41.867226"
     sodipodi:cx="474.46866"
     id="path8971-8"
     style="fill:none;stroke:#000000;stroke-width:1.65017831;stroke-miterlimit:4;stroke-opacity:1;stroke-dasharray:none;stroke-dashoffset:0"
     sodipodi:type="arc" />
  <path
     transform="matrix(0.42968409,-0.67097612,0.71529935,0.31452674,-72.872274,181.37904)"
     sodipodi:open="true"
     sodipodi:end="0.60706608"
     sodipodi:start="0"
     d="m 227.68838,210.68896 a 59.220192,59.220192 0 0 1 -10.58116,33.78277"
     sodipodi:ry="59.220192"
     sodipodi:rx="59.220192"
     sodipodi:cy="210.68896"
     sodipodi:cx="168.46819"
     id="path8322-3-8-6"
     style="fill:none;stroke:#000000;stroke-width:1.15115058;stroke-miterlimit:4;stroke-opacity:1;stroke-dasharray:none;stroke-dashoffset:0"
     sodipodi:type="arc" />
  <text
     sodipodi:linespacing="125%"
     id="text3116-2"
     y="347.96283"
     x="-5.2198291"
     style="font-size:40px;font-style:normal;font-weight:normal;line-height:125%;letter-spacing:0px;word-spacing:0px;fill:#000000;fill-opacity:1;stroke:none;font-family:Sans"
     xml:space="preserve"><tspan
       y="347.96283"
       x="-5.2198291"
       id="tspan3118-6"
       sodipodi:role="line" /></text>
  <path
     transform="matrix(0.63426423,-1.4255665,1.5820365,0.57153284,-152.85073,745.52406)"
     sodipodi:open="true"
     sodipodi:end="0.64726994"
     sodipodi:start="0"
     d="M 534.57273,41.867226 A 60.104076,60.104076 0 0 1 522.41567,78.110633"
     sodipodi:ry="60.104076"
     sodipodi:rx="60.104076"
     sodipodi:cy="41.867226"
     sodipodi:cx="474.46866"
     id="path8971-5"
     style="fill:none;stroke:#000000;stroke-width:0.6279617;stroke-miterlimit:4;stroke-opacity:1;stroke-dasharray:none;stroke-dashoffset:0"
     sodipodi:type="arc" />
  <path
     inkscape:connector-curvature="0"
     id="path5959-0-1"
     d="M 247.42797,25.366735 251.24922,6.939366"
     style="fill:none;stroke:#000000;stroke-width:0.903;stroke-linecap:butt;stroke-linejoin:miter;stroke-miterlimit:4;stroke-opacity:1;stroke-dasharray:0.903, 1.806;stroke-dashoffset:0" />
  <path
     style="fill:none;stroke:#000000;stroke-width:2;stroke-linecap:butt;stroke-linejoin:miter;stroke-miterlimit:4;stroke-opacity:1;stroke-dasharray:none;marker-end:url(#Arrow1Mend)"
     d="m 155.67829,136.41888 45.698,-27.83187"
     id="path5959-0-3-8"
     inkscape:connector-curvature="0" />
  <path
     style="fill:none;stroke:#000000;stroke-width:2;stroke-linecap:butt;stroke-linejoin:miter;stroke-miterlimit:4;stroke-opacity:1;stroke-dasharray:none;marker-end:url(#Arrow1Mend)"
     d="M 153.45589,135.93804 125.74512,90.166501"
     id="path5959-0-3-5-9"
     inkscape:connector-curvature="0" />
  <g
     style="font-style:normal;font-variant:normal;font-weight:normal;font-stretch:normal;letter-spacing:normal;word-spacing:normal;text-anchor:start;fill:none;stroke:#000000;stroke-linecap:butt;stroke-linejoin:miter;stroke-miterlimit:10.43299961;stroke-opacity:1;stroke-dasharray:none;stroke-dashoffset:0"
     ns0:preamble="/home/andre/Copy/Inkscape/preamble.ini"
     ns0:text="\\[\\mathbf{t}_y\\]"
     word-spacing="normal"
     letter-spacing="normal"
     font-size-adjust="none"
     font-stretch="normal"
     font-weight="normal"
     font-variant="normal"
     font-style="normal"
     stroke-miterlimit="10.433"
     xml:space="preserve"
     transform="matrix(1.6753455,0,0,-1.6753455,-523.04142,1272.9529)"
     id="g7601"><path
       id="path7603"
       d="m 391.69,711.07 v -2.72 c 0,-1.07 0.87,-1.28 1.57,-1.28 0.76,0 1.21,0.56 1.21,1.29 v 0.52 H 394 v -0.5 c 0,-0.68 -0.32,-0.92 -0.6,-0.92 -0.57,0 -0.57,0.64 -0.57,0.87 v 2.74 h 1.45 v 0.47 h -1.45 v 1.89 h -0.47 c -0.01,-0.99 -0.5,-1.97 -1.48,-2 v -0.36 z"
       inkscape:connector-curvature="0"
       style="fill:#000000;stroke-width:0" /><path
       id="path7605"
       d="m 398.99,708.25 0,0.01 0.01,0 0,0.01 0,0 0,0 0,0.01 0,0.01 0,0 0.01,0.01 0,0.01 0,0 0,0.01 0,0 0,0.01 0,0 0.01,0.01 0,0 0,0.01 0,0 0,0 0,0.01 0,0 0,0 0,0.01 0,0.01 0,0 0,0.01 0,0 0,0.01 0,0 0,0.01 c 0,0.13 -0.11,0.22 -0.23,0.22 -0.08,0 -0.21,-0.04 -0.28,-0.17 -0.03,-0.04 -0.08,-0.26 -0.12,-0.4 l -0.14,-0.58 c -0.04,-0.17 -0.26,-1.04 -0.28,-1.12 -0.01,0 -0.31,-0.6 -0.86,-0.6 -0.47,0 -0.47,0.45 -0.47,0.57 0,0.38 0.16,0.82 0.37,1.35 0.08,0.23 0.12,0.31 0.12,0.43 0,0.33 -0.29,0.59 -0.67,0.59 -0.7,0 -1.01,-0.95 -1.01,-1.07 0,-0.09 0.1,-0.09 0.12,-0.09 0.09,0 0.1,0.04 0.12,0.11 0.18,0.58 0.48,0.85 0.75,0.85 0.12,0 0.18,-0.07 0.18,-0.24 0,-0.16 -0.06,-0.31 -0.1,-0.4 -0.33,-0.85 -0.4,-1.11 -0.4,-1.41 0,-0.12 0,-0.45 0.27,-0.67 0.21,-0.18 0.51,-0.22 0.69,-0.22 0.28,0 0.53,0.11 0.76,0.31 -0.09,-0.38 -0.16,-0.67 -0.46,-1.02 -0.18,-0.21 -0.46,-0.44 -0.83,-0.44 -0.05,0 -0.38,0 -0.52,0.23 0.37,0.04 0.37,0.37 0.37,0.38 0,0.22 -0.2,0.26 -0.27,0.26 -0.17,0 -0.4,-0.14 -0.4,-0.46 0,-0.35 0.33,-0.61 0.83,-0.61 0.7,0 1.56,0.55 1.77,1.41 z"
       inkscape:connector-curvature="0"
       style="fill:#000000;stroke-width:0" /></g>  <g
     id="content-6"
     transform="matrix(1.6753455,0,0,-1.6753455,-453.23767,1309.6566)"
     xml:space="preserve"
     stroke-miterlimit="10.433"
     font-style="normal"
     font-variant="normal"
     font-weight="normal"
     font-stretch="normal"
     font-size-adjust="none"
     letter-spacing="normal"
     word-spacing="normal"
     ns0:text="\\[\\mathbf{t}_x\\]"
     ns0:preamble="/home/andre/Copy/Inkscape/preamble.ini"
     style="font-style:normal;font-variant:normal;font-weight:normal;font-stretch:normal;letter-spacing:normal;word-spacing:normal;text-anchor:start;fill:none;stroke:#000000;stroke-linecap:butt;stroke-linejoin:miter;stroke-miterlimit:10.43299961;stroke-opacity:1;stroke-dasharray:none;stroke-dashoffset:0"><path
       style="fill:#000000;stroke-width:0"
       inkscape:connector-curvature="0"
       d="m 391.58,711.07 v -2.72 c 0,-1.07 0.86,-1.28 1.57,-1.28 0.75,0 1.2,0.56 1.2,1.29 v 0.52 h -0.46 v -0.5 c 0,-0.68 -0.32,-0.92 -0.6,-0.92 -0.58,0 -0.58,0.64 -0.58,0.87 v 2.74 h 1.45 v 0.47 h -1.45 v 1.89 h -0.47 c -0.01,-0.99 -0.49,-1.97 -1.48,-2 v -0.36 z"
       id="path7485" /><path
       style="fill:#000000;stroke-width:0"
       inkscape:connector-curvature="0"
       d="m 396.74,706.37 -0.01,-0.02 0,-0.03 -0.01,-0.02 -0.01,-0.03 -0.01,-0.02 -0.01,-0.03 -0.02,-0.02 -0.01,-0.03 -0.01,-0.02 -0.02,-0.03 -0.02,-0.02 -0.01,-0.03 -0.02,-0.02 -0.02,-0.03 -0.02,-0.02 -0.02,-0.03 -0.02,-0.02 -0.02,-0.02 -0.02,-0.02 -0.03,-0.02 -0.02,-0.02 -0.03,-0.02 -0.02,-0.02 -0.03,-0.01 -0.03,-0.02 -0.03,-0.01 -0.03,-0.01 -0.03,-0.01 -0.03,0 -0.03,-0.01 -0.03,0 -0.03,0 c -0.02,0 -0.23,0 -0.38,0.09 0.29,0.09 0.31,0.34 0.31,0.39 0,0.15 -0.12,0.25 -0.28,0.25 -0.2,0 -0.4,-0.16 -0.4,-0.42 0,-0.35 0.39,-0.51 0.73,-0.51 0.32,0 0.61,0.2 0.78,0.49 0.17,-0.36 0.55,-0.49 0.83,-0.49 0.8,0 1.23,0.87 1.23,1.06 0,0.1 -0.09,0.1 -0.11,0.1 -0.1,0 -0.11,-0.04 -0.14,-0.12 -0.14,-0.48 -0.56,-0.84 -0.95,-0.84 -0.28,0 -0.43,0.18 -0.43,0.45 0,0.18 0.17,0.81 0.37,1.58 0.14,0.54 0.45,0.71 0.68,0.71 0.01,0 0.23,0 0.37,-0.09 -0.22,-0.07 -0.3,-0.26 -0.3,-0.39 0,-0.15 0.12,-0.25 0.28,-0.25 0.16,0 0.39,0.13 0.39,0.42 0,0.39 -0.45,0.51 -0.73,0.51 -0.35,0 -0.62,-0.23 -0.78,-0.5 -0.12,0.29 -0.44,0.5 -0.83,0.5 -0.78,0 -1.23,-0.86 -1.23,-1.07 0,-0.09 0.1,-0.09 0.12,-0.09 0.09,0 0.1,0.03 0.13,0.12 0.18,0.54 0.61,0.84 0.96,0.84 0.23,0 0.41,-0.12 0.41,-0.46 0,-0.13 -0.08,-0.48 -0.14,-0.72 z"
       id="path7487" /></g>  <path
     style="fill:none;stroke:#000000;stroke-width:2;stroke-linecap:butt;stroke-linejoin:miter;stroke-miterlimit:4;stroke-opacity:1;stroke-dasharray:none;marker-end:url(#Arrow1Mend)"
     d="M 233.66025,88.400561 265.08737,45.096324"
     id="path5959-0-3-8-3"
     inkscape:connector-curvature="0" />
  <path
     style="fill:none;stroke:#000000;stroke-width:2;stroke-linecap:butt;stroke-linejoin:miter;stroke-miterlimit:4;stroke-opacity:1;stroke-dasharray:none;marker-end:url(#Arrow1Mend)"
     d="M 231.42435,88.814121 188.20347,57.272434"
     id="path5959-0-3-5-9-8"
     inkscape:connector-curvature="0" />
  <g
     id="g4508"
     transform="matrix(1.6753455,0,0,-1.6753455,-462.30597,1235.8206)"
     xml:space="preserve"
     stroke-miterlimit="10.433"
     font-style="normal"
     font-variant="normal"
     font-weight="normal"
     font-stretch="normal"
     font-size-adjust="none"
     letter-spacing="normal"
     word-spacing="normal"
     ns0:text="\\[\\mathbf{e}_y\\]"
     ns0:preamble="/home/andre/Copy/Inkscape/preamble.ini"
     style="font-style:normal;font-variant:normal;font-weight:normal;font-stretch:normal;letter-spacing:normal;word-spacing:normal;text-anchor:start;fill:none;stroke:#000000;stroke-linecap:butt;stroke-linejoin:miter;stroke-miterlimit:10.43299961;stroke-opacity:1;stroke-dasharray:none;stroke-dashoffset:0"><path
       d="m 394.86,709.29 0.03,0 0.01,0 0.02,0 0.02,0 0.02,0 0.02,0 0.01,0 0.02,0.01 0.01,0 0.02,0 0.01,0 0.01,0.01 0.01,0 0.01,0 0.02,0.01 0.01,0 0.01,0.01 0,0.01 0.01,0.01 0.01,0.01 0.01,0.01 0,0.01 0.01,0 0,0.01 0,0.01 0,0 0.01,0.01 0,0.01 0,0.01 0,0 0,0.01 0.01,0.01 0,0.01 0,0.01 0,0.01 0,0.01 0,0.01 0,0.01 0,0.01 0,0.01 0,0.02 0,0.01 c 0,0.31 -0.06,1.03 -0.55,1.53 -0.37,0.36 -0.9,0.53 -1.59,0.53 -1.59,0 -2.45,-1.02 -2.45,-2.26 0,-1.33 0.99,-2.29 2.59,-2.29 1.58,0 2,1.05 2,1.22 0,0.18 -0.19,0.18 -0.24,0.18 -0.17,0 -0.18,-0.05 -0.24,-0.21 -0.21,-0.48 -0.78,-0.8 -1.43,-0.8 -1.4,0 -1.41,1.32 -1.41,1.83 v 0.33 c 0.02,0.39 0.03,0.8 0.24,1.13 0.26,0.4 0.66,0.52 0.94,0.52 1.17,0 1.19,-1.3 1.2,-1.65 h -2.38 v -0.33 z"
       id="path4510"
       inkscape:connector-curvature="0"
       style="fill:#000000;stroke-width:0" /><path
       d="m 399.39,708.25 0,0.01 0,0 0,0.01 0.01,0 0,0 0,0.01 0,0.01 0,0 0,0.01 0.01,0.01 0,0 0,0.01 0,0 0,0.01 0,0 0,0.01 0,0 0,0.01 0.01,0 0,0 0,0.01 0,0 0,0 0,0.01 0,0.01 0,0 0,0.01 0,0 0,0.01 0,0 0,0.01 c 0,0.13 -0.11,0.22 -0.23,0.22 -0.08,0 -0.21,-0.04 -0.29,-0.17 -0.02,-0.04 -0.07,-0.26 -0.11,-0.4 l -0.14,-0.58 c -0.05,-0.17 -0.26,-1.04 -0.28,-1.12 -0.01,0 -0.32,-0.6 -0.86,-0.6 -0.47,0 -0.47,0.45 -0.47,0.57 0,0.38 0.16,0.82 0.37,1.35 0.08,0.23 0.11,0.31 0.11,0.43 0,0.33 -0.28,0.59 -0.66,0.59 -0.7,0 -1.01,-0.95 -1.01,-1.07 0,-0.09 0.09,-0.09 0.11,-0.09 0.1,0 0.11,0.04 0.13,0.11 0.17,0.58 0.47,0.85 0.75,0.85 0.12,0 0.18,-0.07 0.18,-0.24 0,-0.16 -0.07,-0.31 -0.1,-0.4 -0.34,-0.85 -0.4,-1.11 -0.4,-1.41 0,-0.12 0,-0.45 0.27,-0.67 0.21,-0.18 0.51,-0.22 0.69,-0.22 0.28,0 0.53,0.11 0.76,0.31 -0.09,-0.38 -0.16,-0.67 -0.46,-1.02 -0.19,-0.21 -0.46,-0.44 -0.83,-0.44 -0.05,0 -0.38,0 -0.53,0.23 0.38,0.04 0.38,0.37 0.38,0.38 0,0.22 -0.2,0.26 -0.27,0.26 -0.17,0 -0.41,-0.14 -0.41,-0.46 0,-0.35 0.34,-0.61 0.83,-0.61 0.71,0 1.56,0.55 1.78,1.41 z"
       id="path4512"
       inkscape:connector-curvature="0"
       style="fill:#000000;stroke-width:0" /></g>  <g
     style="font-style:normal;font-variant:normal;font-weight:normal;font-stretch:normal;letter-spacing:normal;word-spacing:normal;text-anchor:start;fill:none;stroke:#000000;stroke-linecap:butt;stroke-linejoin:miter;stroke-miterlimit:10.43299961;stroke-opacity:1;stroke-dasharray:none;stroke-dashoffset:0"
     ns0:preamble="/home/andre/Copy/Inkscape/preamble.ini"
     ns0:text="\\[a\\]"
     word-spacing="normal"
     letter-spacing="normal"
     font-size-adjust="none"
     font-stretch="normal"
     font-weight="normal"
     font-variant="normal"
     font-style="normal"
     stroke-miterlimit="10.433"
     xml:space="preserve"
     transform="matrix(1.8177684,0,0,-1.8177684,-575.8842,1330.5743)"
     id="g3306"><path
       id="path3308"
       d="m 396.37,710.88 -0.02,0.03 -0.02,0.04 -0.02,0.03 -0.02,0.03 -0.02,0.03 -0.02,0.03 -0.02,0.03 -0.02,0.03 -0.02,0.03 -0.03,0.03 -0.02,0.03 -0.02,0.02 -0.03,0.03 -0.03,0.02 -0.02,0.02 -0.03,0.03 -0.03,0.02 -0.03,0.02 -0.03,0.01 -0.03,0.02 -0.03,0.02 -0.03,0.01 -0.04,0.02 -0.03,0.01 -0.04,0.01 -0.03,0.01 -0.04,0.01 -0.04,0 -0.04,0.01 -0.04,0 -0.04,0.01 -0.04,0 c -1.16,0 -2.4,-1.47 -2.4,-2.92 0,-0.93 0.55,-1.58 1.33,-1.58 l 0.02,0.21 c -0.5,0 -0.64,0.55 -0.64,0.94 0,0.49 0.32,1.72 0.55,2.17 0.3,0.59 0.75,0.96 1.15,0.96 0.65,0 0.79,-0.82 0.79,-0.88 0,-0.06 -0.02,-0.12 -0.03,-0.17 l -0.5,-1.94 c -0.05,-0.18 -0.05,-0.2 -0.2,-0.37 -0.44,-0.55 -0.85,-0.71 -1.12,-0.71 l -0.02,-0.21 c 0.2,0 0.69,0.03 1.29,0.74 0.08,-0.42 0.43,-0.74 0.91,-0.74 0.34,0 0.57,0.22 0.73,0.54 0.17,0.36 0.3,0.97 0.3,0.99 0,0.1 -0.09,0.1 -0.12,0.1 -0.1,0 -0.11,-0.05 -0.14,-0.18 -0.17,-0.65 -0.35,-1.24 -0.75,-1.24 -0.27,0 -0.3,0.26 -0.3,0.46 0,0.22 0.02,0.3 0.13,0.74 0.11,0.41 0.12,0.51 0.21,0.89 l 0.36,1.39 c 0.07,0.28 0.07,0.3 0.07,0.34 0,0.17 -0.12,0.27 -0.29,0.27 -0.23,0 -0.38,-0.22 -0.41,-0.44 z"
       inkscape:connector-curvature="0"
       style="fill:#000000;stroke-width:0" /></g>  <g
     id="content"
     transform="matrix(1.9209038,0,0,-1.9209038,-675.0858,1437.293)"
     xml:space="preserve"
     stroke-miterlimit="10.433"
     font-style="normal"
     font-variant="normal"
     font-weight="normal"
     font-stretch="normal"
     font-size-adjust="none"
     letter-spacing="normal"
     word-spacing="normal"
     ns0:text="\\[b\\]"
     ns0:preamble="/home/andre/Copy/Inkscape/preamble.ini"
     style="font-style:normal;font-variant:normal;font-weight:normal;font-stretch:normal;letter-spacing:normal;word-spacing:normal;text-anchor:start;fill:none;stroke:#000000;stroke-linecap:butt;stroke-linejoin:miter;stroke-miterlimit:10.43299961;stroke-opacity:1;stroke-dasharray:none;stroke-dashoffset:0"><path
       d="m 395.53,713.91 0,0 0,0 0,0 0,0 0,0.01 0,0 0,0 0,0.01 0,0 0,0.01 -0.01,0 0,0 0,0.01 0,0 0,0.01 -0.01,0 0,0.01 0,0 -0.01,0.01 0,0 0,0.01 -0.01,0 0,0 0,0 0,0.01 -0.01,0 0,0 0,0 -0.01,0 0,0.01 0,0 -0.01,0 0,0 -0.01,0 0,0 0,0 -0.01,0 0,0.01 -0.01,0 0,0 -0.01,0 0,0 -0.01,0 -0.01,0 0,0 c -0.23,0 -0.96,-0.08 -1.22,-0.1 -0.07,-0.01 -0.18,-0.02 -0.18,-0.2 0,-0.12 0.08,-0.12 0.23,-0.12 0.48,0 0.5,-0.07 0.5,-0.17 0,-0.07 -0.09,-0.4 -0.14,-0.61 l -0.81,-3.24 c -0.12,-0.5 -0.16,-0.66 -0.16,-1 0,-0.95 0.52,-1.56 1.26,-1.56 v 0.21 c -0.34,0 -0.67,0.27 -0.67,1.01 0,0.19 0,0.37 0.16,1 l 0.22,0.92 c 0.06,0.21 0.06,0.23 0.15,0.34 0.49,0.65 0.94,0.8 1.2,0.8 0.35,0 0.62,-0.3 0.62,-0.94 0,-0.58 -0.33,-1.72 -0.51,-2.1 -0.32,-0.67 -0.78,-1.03 -1.17,-1.03 v -0.21 c 1.17,0 2.4,1.48 2.4,2.91 0,0.9 -0.53,1.59 -1.32,1.59 -0.46,0 -0.87,-0.29 -1.17,-0.6 z"
       id="path3636"
       inkscape:connector-curvature="0"
       style="fill:#000000;stroke-width:0" /></g>  <g
     id="g3298"
     transform="matrix(1.6554343,0,0,-1.6554343,-367.14488,1182.2119)"
     xml:space="preserve"
     stroke-miterlimit="10.433"
     font-style="normal"
     font-variant="normal"
     font-weight="normal"
     font-stretch="normal"
     font-size-adjust="none"
     letter-spacing="normal"
     word-spacing="normal"
     ns0:text="\\[\\beta\\]"
     ns0:preamble="/home/andre/Copy/Inkscape/preamble.ini"
     style="font-style:normal;font-variant:normal;font-weight:normal;font-stretch:normal;letter-spacing:normal;word-spacing:normal;text-anchor:start;fill:none;stroke:#000000;stroke-linecap:butt;stroke-linejoin:miter;stroke-miterlimit:10.43299961;stroke-opacity:1;stroke-dasharray:none;stroke-dashoffset:0"><path
       style="fill:#000000;stroke-width:0"
       inkscape:connector-curvature="0"
       d="m 397.93,712.78 0,0.07 -0.01,0.07 -0.01,0.06 -0.01,0.07 -0.01,0.06 -0.02,0.07 -0.02,0.06 -0.02,0.06 -0.03,0.06 -0.02,0.06 -0.03,0.06 -0.04,0.06 -0.03,0.05 -0.04,0.05 -0.04,0.05 -0.05,0.05 -0.04,0.04 -0.05,0.05 -0.05,0.04 -0.05,0.03 -0.06,0.04 -0.05,0.03 -0.06,0.03 -0.06,0.03 -0.07,0.02 -0.06,0.03 -0.07,0.01 -0.07,0.02 -0.07,0.01 -0.07,0.01 -0.07,0.01 -0.07,0 c -0.58,0 -0.86,-0.16 -1.21,-0.42 -0.55,-0.4 -1.09,-1.36 -1.28,-2.12 l -1.58,-6.3 c -0.01,-0.04 0.04,-0.1 0.11,-0.1 0.08,0 0.11,0.02 0.12,0.05 l 0.7,2.74 c 0.19,-0.6 0.63,-0.96 1.35,-0.96 l -0.03,0.21 c -0.75,0 -1.13,0.58 -1.13,1.29 0,0.09 0,0.24 0.05,0.43 l 0.64,2.52 c 0.22,0.85 0.93,2.43 2.13,2.43 0.57,0 0.92,-0.31 0.92,-0.9 h 0 c 0,-0.7 -0.38,-1.42 -0.89,-1.72 -0.27,0.1 -0.47,0.12 -0.77,0.12 -0.21,0 -0.77,0.01 -0.77,-0.32 -0.01,-0.28 0.51,-0.25 0.69,-0.25 l 0.03,0.22 c -0.14,0 -0.34,-0.01 -0.44,0.04 0.02,0.1 0.38,0.08 0.49,0.08 0.21,0 0.3,0 0.43,-0.05 h 0 c -0.13,-0.05 -0.24,-0.07 -0.48,-0.07 l -0.03,-0.22 c 0.37,0 0.52,0.01 0.82,0.13 0.37,-0.36 0.42,-0.67 0.43,-1.12 0.02,-0.58 -0.22,-1.32 -0.49,-1.71 -0.39,-0.54 -1.06,-0.9 -1.63,-0.9 l 0.03,-0.21 c 0.73,0 1.48,0.34 1.92,0.78 0.48,0.46 0.8,1.09 0.8,1.83 0,0.71 -0.37,1.23 -0.73,1.48 0.58,0.33 1.15,0.94 1.15,1.66 z"
       id="path3300" /></g>  <g
     style="font-style:normal;font-variant:normal;font-weight:normal;font-stretch:normal;letter-spacing:normal;word-spacing:normal;text-anchor:start;fill:none;stroke:#000000;stroke-linecap:butt;stroke-linejoin:miter;stroke-miterlimit:10.43299961;stroke-opacity:1;stroke-dasharray:none;stroke-dashoffset:0"
     ns0:preamble=""
     ns0:text="\\[\\mathbf{v}_{\\rm F}\\]"
     word-spacing="normal"
     letter-spacing="normal"
     font-size-adjust="none"
     font-stretch="normal"
     font-weight="normal"
     font-variant="normal"
     font-style="normal"
     stroke-miterlimit="10.433"
     xml:space="preserve"
     transform="matrix(1.6546622,0,0,-1.6546622,-421.63906,1192.4402)"
     id="g3296"><path
       id="path3298"
       d="m 394.48,710.86 0.01,0.03 0.01,0.02 0.01,0.01 0,0.01 0.01,0.01 0.01,0.01 0.01,0.01 0.01,0.01 0.01,0.01 0.01,0.01 0.01,0.01 0.02,0 0.01,0.01 0.02,0.01 0.02,0 0.02,0.01 0.02,0 0.03,0.01 0.03,0 0.01,0.01 0.01,0 0.02,0 0.02,0 0.01,0 0.02,0.01 0.02,0 0.02,0 0.02,0 0.02,0 0.02,0 0.02,0 0.02,0 0.02,0.01 0.03,0 0.02,0 0.03,0 0.02,0 0.03,0 0.03,0 0.03,0 0.03,0 v 0.47 c -0.25,-0.02 -0.54,-0.03 -0.79,-0.03 -0.25,0 -0.7,0.02 -0.91,0.03 v -0.47 c 0.19,0 0.48,-0.03 0.48,-0.11 0,-0.01 -0.01,-0.03 -0.05,-0.12 l -1.15,-2.48 -1.27,2.71 h 0.54 v 0.47 c -0.33,-0.02 -1.22,-0.03 -1.23,-0.03 -0.28,0 -0.73,0.02 -1.14,0.03 v -0.47 h 0.64 l 1.74,-3.74 c 0.12,-0.24 0.25,-0.24 0.38,-0.24 0.17,0 0.27,0.02 0.37,0.23 z"
       inkscape:connector-curvature="0"
       style="fill:#000000;stroke-width:0" /><path
       id="path3301"
       d="m 400.03,710.35 h -4.15 v -0.25 h 0.17 c 0.53,0 0.55,-0.07 0.55,-0.31 v -3.6 c 0,-0.23 -0.02,-0.31 -0.55,-0.31 h -0.17 v -0.25 c 0.01,0 0.8,0.03 1.06,0.03 0.29,0 1.11,-0.02 1.22,-0.03 v 0.25 h -0.24 c -0.66,0 -0.66,0.09 -0.66,0.32 v 1.67 h 0.68 c 0.69,0 0.79,-0.21 0.79,-0.81 h 0.24 v 1.87 h -0.24 c 0,-0.59 -0.1,-0.81 -0.79,-0.81 h -0.68 v 1.71 c 0,0.22 0.01,0.27 0.34,0.27 h 0.97 c 1.12,0 1.31,-0.37 1.44,-1.35 h 0.23 z"
       inkscape:connector-curvature="0"
       style="fill:#000000;stroke-width:0" /></g>  <g
     id="g3620"
     transform="matrix(1.6554343,0,0,-1.6554343,-392.51276,1202.4818)"
     xml:space="preserve"
     stroke-miterlimit="10.433"
     font-style="normal"
     font-variant="normal"
     font-weight="normal"
     font-stretch="normal"
     font-size-adjust="none"
     letter-spacing="normal"
     word-spacing="normal"
     ns0:text="\\[\\alpha_{\\rm F}\\]"
     ns0:preamble=""
     style="font-style:normal;font-variant:normal;font-weight:normal;font-stretch:normal;letter-spacing:normal;word-spacing:normal;text-anchor:start;fill:none;stroke:#000000;stroke-linecap:butt;stroke-linejoin:miter;stroke-miterlimit:10.43299961;stroke-opacity:1;stroke-dasharray:none;stroke-dashoffset:0"><path
       d="m 394.03,709.47 0,0.07 0,0.07 -0.01,0.07 0,0.07 -0.02,0.13 -0.01,0.12 -0.03,0.12 -0.02,0.12 -0.03,0.1 -0.04,0.11 -0.04,0.09 -0.04,0.1 -0.04,0.08 -0.05,0.08 -0.06,0.08 -0.05,0.07 -0.06,0.07 -0.06,0.06 -0.06,0.05 -0.06,0.06 -0.07,0.05 -0.06,0.04 -0.07,0.04 -0.07,0.04 -0.07,0.03 -0.07,0.03 -0.08,0.02 -0.07,0.02 -0.07,0.02 -0.07,0.01 -0.07,0.01 -0.07,0.01 -0.07,0 -0.07,0.01 c -1.37,0 -2.68,-1.43 -2.68,-2.83 0,-0.92 0.6,-1.67 1.61,-1.67 l 0.02,0.21 c -0.59,0 -0.89,0.45 -0.89,1.09 0,0.48 0.25,1.56 0.57,2.06 0.47,0.73 1.01,0.92 1.36,0.92 0.98,0 0.98,-1.3 0.98,-2.08 0,-0.37 0,-0.94 0.02,-1.11 h 0 c -0.87,-0.77 -1.64,-0.88 -2.04,-0.88 l -0.02,-0.21 c 0.63,0 1.34,0.22 2.1,0.83 0.13,-0.53 0.46,-0.83 0.91,-0.83 0.52,0 0.83,0.54 0.83,0.7 0,0.07 -0.06,0.1 -0.12,0.1 -0.07,0 -0.1,-0.03 -0.13,-0.1 -0.18,-0.49 -0.53,-0.49 -0.55,-0.49 -0.31,0 -0.31,0.78 -0.31,1.02 0,0.21 0,0.23 0.1,0.34 0.93,1.18 1.14,2.33 1.14,2.34 0,0.02 -0.01,0.1 -0.12,0.1 -0.1,0 -0.1,-0.03 -0.15,-0.21 -0.18,-0.62 -0.51,-1.38 -0.97,-1.97 z"
       id="path3622"
       inkscape:connector-curvature="0"
       style="fill:#000000;stroke-width:0" /><path
       d="m 400.2,710.35 h -4.15 v -0.25 h 0.16 c 0.54,0 0.55,-0.07 0.55,-0.31 v -3.6 c 0,-0.23 -0.01,-0.31 -0.55,-0.31 h -0.16 v -0.25 c 0,0 0.79,0.03 1.05,0.03 0.29,0 1.12,-0.02 1.22,-0.03 v 0.25 h -0.24 c -0.66,0 -0.66,0.09 -0.66,0.32 v 1.67 h 0.68 c 0.7,0 0.79,-0.21 0.79,-0.81 h 0.24 v 1.87 h -0.24 c 0,-0.59 -0.09,-0.81 -0.79,-0.81 h -0.68 v 1.71 c 0,0.22 0.01,0.27 0.34,0.27 h 0.97 c 1.13,0 1.31,-0.37 1.44,-1.35 h 0.23 z"
       id="path3624"
       inkscape:connector-curvature="0"
       style="fill:#000000;stroke-width:0" /></g>  <g
     style="font-style:normal;font-variant:normal;font-weight:normal;font-stretch:normal;letter-spacing:normal;word-spacing:normal;text-anchor:start;fill:none;stroke:#000000;stroke-linecap:butt;stroke-linejoin:miter;stroke-miterlimit:10.43299961;stroke-opacity:1;stroke-dasharray:none;stroke-dashoffset:0"
     ns0:preamble=""
     ns0:text="\\[\\alpha_{\\rm T}\\]"
     word-spacing="normal"
     letter-spacing="normal"
     font-size-adjust="none"
     font-stretch="normal"
     font-weight="normal"
     font-variant="normal"
     font-style="normal"
     stroke-miterlimit="10.433"
     xml:space="preserve"
     transform="matrix(1.7966666,0,0,-1.7966666,-514.10691,1365.957)"
     id="g3943"><path
       id="path3945"
       d="m 393.76,709.47 -0.01,0.07 0,0.07 0,0.07 -0.01,0.07 -0.01,0.13 -0.02,0.12 -0.02,0.12 -0.03,0.12 -0.03,0.1 -0.03,0.11 -0.04,0.09 -0.04,0.1 -0.05,0.08 -0.05,0.08 -0.05,0.08 -0.05,0.07 -0.06,0.07 -0.06,0.06 -0.06,0.05 -0.06,0.06 -0.07,0.05 -0.07,0.04 -0.07,0.04 -0.06,0.04 -0.08,0.03 -0.07,0.03 -0.07,0.02 -0.07,0.02 -0.07,0.02 -0.07,0.01 -0.08,0.01 -0.07,0.01 -0.07,0 -0.07,0.01 c -1.36,0 -2.67,-1.43 -2.67,-2.83 0,-0.92 0.59,-1.67 1.61,-1.67 l 0.02,0.21 c -0.6,0 -0.9,0.45 -0.9,1.09 0,0.48 0.26,1.56 0.58,2.06 0.47,0.73 1,0.92 1.35,0.92 0.99,0 0.99,-1.3 0.99,-2.08 0,-0.37 0,-0.94 0.02,-1.11 h 0 c -0.88,-0.77 -1.64,-0.88 -2.04,-0.88 l -0.02,-0.21 c 0.62,0 1.34,0.22 2.1,0.83 0.13,-0.53 0.46,-0.83 0.9,-0.83 0.53,0 0.84,0.54 0.84,0.7 0,0.07 -0.06,0.1 -0.12,0.1 -0.07,0 -0.1,-0.03 -0.13,-0.1 -0.18,-0.49 -0.54,-0.49 -0.56,-0.49 -0.3,0 -0.3,0.78 -0.3,1.02 0,0.21 0,0.23 0.09,0.34 0.94,1.18 1.15,2.33 1.15,2.34 0,0.02 -0.01,0.1 -0.12,0.1 -0.1,0 -0.1,-0.03 -0.15,-0.21 -0.18,-0.62 -0.51,-1.38 -0.97,-1.97 z"
       inkscape:connector-curvature="0"
       style="fill:#000000;stroke-width:0" /><path
       id="path3947"
       d="m 400.57,710.33 h -4.71 l -0.14,-1.6 h 0.23 c 0.1,1.2 0.3,1.35 1.38,1.35 0.13,0 0.34,0 0.41,-0.01 0.15,-0.02 0.15,-0.1 0.15,-0.26 v -3.61 c 0,-0.23 0,-0.32 -0.72,-0.32 h -0.3 v -0.25 c 0.34,0.03 0.99,0.03 1.35,0.03 0.37,0 1.01,0 1.35,-0.03 v 0.25 h -0.3 c -0.72,0 -0.72,0.09 -0.72,0.32 v 3.61 c 0,0.16 0,0.24 0.15,0.26 0.07,0.01 0.28,0.01 0.41,0.01 0.4,0 0.69,0 0.94,-0.14 0.31,-0.18 0.36,-0.63 0.37,-0.66 l 0.06,-0.55 h 0.24 z"
       inkscape:connector-curvature="0"
       style="fill:#000000;stroke-width:0" /></g>  <g
     id="g4266"
     transform="matrix(1.6546622,0,0,-1.6546622,-483.02005,1247.4674)"
     xml:space="preserve"
     stroke-miterlimit="10.433"
     font-style="normal"
     font-variant="normal"
     font-weight="normal"
     font-stretch="normal"
     font-size-adjust="none"
     letter-spacing="normal"
     word-spacing="normal"
     ns0:text="\\[\\mathbf{v}_{\\rm T}\\]"
     ns0:preamble=""
     style="font-style:normal;font-variant:normal;font-weight:normal;font-stretch:normal;letter-spacing:normal;word-spacing:normal;text-anchor:start;fill:none;stroke:#000000;stroke-linecap:butt;stroke-linejoin:miter;stroke-miterlimit:10.43299961;stroke-opacity:1;stroke-dasharray:none;stroke-dashoffset:0"><path
       d="m 394.21,710.86 0.01,0.03 0.01,0.02 0.01,0.01 0,0.01 0.01,0.01 0.01,0.01 0.01,0.01 0.01,0.01 0.01,0.01 0.01,0.01 0.01,0.01 0.01,0 0.02,0.01 0.02,0.01 0.02,0 0.02,0.01 0.02,0 0.03,0.01 0.02,0 0.02,0.01 0.01,0 0.02,0 0.01,0 0.02,0 0.02,0.01 0.02,0 0.01,0 0.02,0 0.02,0 0.02,0 0.03,0 0.02,0 0.02,0.01 0.02,0 0.03,0 0.02,0 0.03,0 0.03,0 0.03,0 0.02,0 0.03,0 v 0.47 c -0.25,-0.02 -0.54,-0.03 -0.78,-0.03 -0.25,0 -0.7,0.02 -0.91,0.03 v -0.47 c 0.19,0 0.48,-0.03 0.48,-0.11 0,-0.01 -0.01,-0.03 -0.05,-0.12 l -1.16,-2.48 -1.26,2.71 h 0.54 v 0.47 c -0.33,-0.02 -1.22,-0.03 -1.23,-0.03 -0.28,0 -0.73,0.02 -1.14,0.03 v -0.47 h 0.64 l 1.74,-3.74 c 0.12,-0.24 0.25,-0.24 0.38,-0.24 0.17,0 0.26,0.02 0.36,0.23 z"
       id="path4268"
       inkscape:connector-curvature="0"
       style="fill:#000000;stroke-width:0" /><path
       d="m 400.41,710.33 h -4.71 l -0.15,-1.6 h 0.24 c 0.1,1.2 0.3,1.35 1.37,1.35 0.14,0 0.34,0 0.41,-0.01 0.16,-0.02 0.16,-0.1 0.16,-0.26 v -3.61 c 0,-0.23 0,-0.32 -0.73,-0.32 h -0.29 v -0.25 c 0.34,0.03 0.99,0.03 1.35,0.03 0.36,0 1,0 1.34,-0.03 v 0.25 h -0.29 c -0.72,0 -0.72,0.09 -0.72,0.32 v 3.61 c 0,0.16 0,0.24 0.15,0.26 0.07,0.01 0.27,0.01 0.41,0.01 0.39,0 0.69,0 0.93,-0.14 0.32,-0.18 0.37,-0.63 0.37,-0.66 l 0.07,-0.55 h 0.23 z"
       id="path4270"
       inkscape:connector-curvature="0"
       style="fill:#000000;stroke-width:0" /></g>  <g
     style="font-style:normal;font-variant:normal;font-weight:normal;font-stretch:normal;letter-spacing:normal;word-spacing:normal;text-anchor:start;fill:none;stroke:#000000;stroke-linecap:butt;stroke-linejoin:miter;stroke-miterlimit:10.43299961;stroke-opacity:1;stroke-dasharray:none;stroke-dashoffset:0"
     ns0:preamble=""
     ns0:text="\\[\\alpha_{\\rm R}\\]"
     word-spacing="normal"
     letter-spacing="normal"
     font-size-adjust="none"
     font-stretch="normal"
     font-weight="normal"
     font-variant="normal"
     font-style="normal"
     stroke-miterlimit="10.433"
     xml:space="preserve"
     transform="matrix(1.7966666,0,0,-1.7966666,-577.28186,1402.0498)"
     id="g4589"><path
       id="path4591"
       d="m 393.71,709.47 0,0.07 -0.01,0.07 0,0.07 0,0.07 -0.02,0.13 -0.02,0.12 -0.02,0.12 -0.02,0.12 -0.04,0.1 -0.03,0.11 -0.04,0.09 -0.04,0.1 -0.05,0.08 -0.05,0.08 -0.05,0.08 -0.05,0.07 -0.06,0.07 -0.06,0.06 -0.06,0.05 -0.06,0.06 -0.07,0.05 -0.07,0.04 -0.06,0.04 -0.07,0.04 -0.07,0.03 -0.08,0.03 -0.07,0.02 -0.07,0.02 -0.07,0.02 -0.07,0.01 -0.07,0.01 -0.08,0.01 -0.07,0 -0.07,0.01 c -1.36,0 -2.67,-1.43 -2.67,-2.83 0,-0.92 0.59,-1.67 1.61,-1.67 l 0.02,0.21 c -0.6,0 -0.9,0.45 -0.9,1.09 0,0.48 0.26,1.56 0.58,2.06 0.47,0.73 1.01,0.92 1.35,0.92 0.99,0 0.99,-1.3 0.99,-2.08 0,-0.37 0,-0.94 0.02,-1.11 h 0 c -0.88,-0.77 -1.64,-0.88 -2.04,-0.88 l -0.02,-0.21 c 0.63,0 1.34,0.22 2.1,0.83 0.13,-0.53 0.46,-0.83 0.9,-0.83 0.53,0 0.84,0.54 0.84,0.7 0,0.07 -0.06,0.1 -0.12,0.1 -0.07,0 -0.1,-0.03 -0.13,-0.1 -0.18,-0.49 -0.54,-0.49 -0.56,-0.49 -0.3,0 -0.3,0.78 -0.3,1.02 0,0.21 0,0.23 0.09,0.34 0.94,1.18 1.15,2.33 1.15,2.34 0,0.02 -0.01,0.1 -0.12,0.1 -0.1,0 -0.1,-0.03 -0.15,-0.21 -0.18,-0.62 -0.51,-1.38 -0.97,-1.97 z"
       inkscape:connector-curvature="0"
       style="fill:#000000;stroke-width:0" /><path
       id="path4593"
       d="m 398.83,708 0.06,0.02 0.06,0.01 0.05,0.02 0.06,0.02 0.06,0.02 0.06,0.02 0.05,0.02 0.06,0.03 0.05,0.03 0.06,0.02 0.05,0.03 0.05,0.03 0.05,0.03 0.05,0.04 0.05,0.03 0.04,0.04 0.04,0.03 0.05,0.04 0.03,0.04 0.04,0.04 0.04,0.04 0.03,0.04 0.03,0.05 0.03,0.04 0.02,0.05 0.02,0.04 0.02,0.05 0.01,0.05 0.02,0.05 0.01,0.05 0,0.05 0,0.05 c 0,0.7 -0.92,1.26 -2,1.26 h -2.34 v -0.25 h 0.16 c 0.54,0 0.55,-0.07 0.55,-0.31 v -3.63 c 0,-0.23 -0.01,-0.31 -0.55,-0.31 h -0.16 v -0.25 c 0,0 0.74,0.03 1.03,0.03 0.29,0 0.69,-0.01 1.03,-0.03 v 0.25 h -0.16 c -0.54,0 -0.55,0.07 -0.55,0.31 v 1.72 0.2 1.75 c 0,0.19 0.01,0.24 0.19,0.26 0.05,0.01 0.29,0.01 0.43,0.01 0.67,0 1.63,0 1.63,-1.01 0,-0.78 -0.61,-1.01 -1.35,-1.01 h 0 -0.9 v -0.2 h 0.92 c 0.13,0 0.49,0 0.8,-0.28 0.24,-0.22 0.24,-0.39 0.24,-0.86 0,-0.45 0,-0.74 0.32,-1 0.3,-0.24 0.71,-0.28 0.91,-0.28 0.59,0 0.74,0.56 0.74,0.77 0,0.05 0,0.14 -0.12,0.14 -0.1,0 -0.11,-0.07 -0.11,-0.14 -0.04,-0.4 -0.27,-0.57 -0.48,-0.57 -0.4,0 -0.46,0.41 -0.54,1.04 -0.08,0.56 -0.1,0.67 -0.3,0.9 -0.07,0.07 -0.27,0.25 -0.64,0.37 z"
       inkscape:connector-curvature="0"
       style="fill:#000000;stroke-width:0" /></g>  <g
     id="g4912"
     transform="matrix(1.6546622,0,0,-1.6546622,-553.26701,1288.6538)"
     xml:space="preserve"
     stroke-miterlimit="10.433"
     font-style="normal"
     font-variant="normal"
     font-weight="normal"
     font-stretch="normal"
     font-size-adjust="none"
     letter-spacing="normal"
     word-spacing="normal"
     ns0:text="\\[\\mathbf{v}_{\\rm R}\\]"
     ns0:preamble=""
     style="font-style:normal;font-variant:normal;font-weight:normal;font-stretch:normal;letter-spacing:normal;word-spacing:normal;text-anchor:start;fill:none;stroke:#000000;stroke-linecap:butt;stroke-linejoin:miter;stroke-miterlimit:10.43299961;stroke-opacity:1;stroke-dasharray:none;stroke-dashoffset:0"><path
       d="m 394.16,710.86 0.01,0.03 0.01,0.02 0.01,0.01 0,0.01 0.01,0.01 0.01,0.01 0.01,0.01 0.01,0.01 0.01,0.01 0.01,0.01 0.01,0.01 0.02,0 0.01,0.01 0.02,0.01 0.02,0 0.02,0.01 0.02,0 0.03,0.01 0.02,0 0.02,0.01 0.01,0 0.02,0 0.01,0 0.02,0 0.02,0.01 0.02,0 0.02,0 0.01,0 0.02,0 0.03,0 0.02,0 0.02,0 0.02,0.01 0.03,0 0.02,0 0.03,0 0.02,0 0.03,0 0.03,0 0.02,0 0.03,0 v 0.47 c -0.25,-0.02 -0.53,-0.03 -0.78,-0.03 -0.25,0 -0.7,0.02 -0.91,0.03 v -0.47 c 0.19,0 0.48,-0.03 0.48,-0.11 0,-0.01 -0.01,-0.03 -0.05,-0.12 l -1.15,-2.48 -1.27,2.71 h 0.54 v 0.47 c -0.33,-0.02 -1.22,-0.03 -1.23,-0.03 -0.28,0 -0.73,0.02 -1.14,0.03 v -0.47 h 0.64 l 1.74,-3.74 c 0.12,-0.24 0.25,-0.24 0.38,-0.24 0.17,0 0.27,0.02 0.37,0.23 z"
       id="path4914"
       inkscape:connector-curvature="0"
       style="fill:#000000;stroke-width:0" /><path
       d="m 398.67,708 0.05,0.02 0.06,0.01 0.06,0.02 0.06,0.02 0.06,0.02 0.05,0.02 0.06,0.02 0.06,0.03 0.05,0.03 0.05,0.02 0.06,0.03 0.05,0.03 0.05,0.03 0.05,0.04 0.04,0.03 0.05,0.04 0.04,0.03 0.04,0.04 0.04,0.04 0.04,0.04 0.03,0.04 0.04,0.04 0.03,0.05 0.02,0.04 0.03,0.05 0.02,0.04 0.02,0.05 0.01,0.05 0.01,0.05 0.01,0.05 0.01,0.05 0,0.05 c 0,0.7 -0.92,1.26 -2,1.26 h -2.35 v -0.25 h 0.17 c 0.54,0 0.55,-0.07 0.55,-0.31 v -3.63 c 0,-0.23 -0.01,-0.31 -0.55,-0.31 h -0.17 v -0.25 c 0.01,0 0.75,0.03 1.04,0.03 0.29,0 0.68,-0.01 1.03,-0.03 v 0.25 h -0.16 c -0.54,0 -0.56,0.07 -0.56,0.31 v 1.72 0.2 1.75 c 0,0.19 0.01,0.24 0.19,0.26 0.06,0.01 0.3,0.01 0.44,0.01 0.67,0 1.62,0 1.62,-1.01 0,-0.78 -0.6,-1.01 -1.34,-1.01 h 0 -0.91 v -0.2 h 0.93 c 0.13,0 0.49,0 0.79,-0.28 0.25,-0.22 0.25,-0.39 0.25,-0.86 0,-0.45 0,-0.74 0.32,-1 0.3,-0.24 0.71,-0.28 0.9,-0.28 0.6,0 0.75,0.56 0.75,0.77 0,0.05 0,0.14 -0.12,0.14 -0.1,0 -0.11,-0.07 -0.12,-0.14 -0.03,-0.4 -0.26,-0.57 -0.48,-0.57 -0.39,0 -0.45,0.41 -0.53,1.04 -0.08,0.56 -0.1,0.67 -0.3,0.9 -0.07,0.07 -0.27,0.25 -0.64,0.37 z"
       id="path4916"
       inkscape:connector-curvature="0"
       style="fill:#000000;stroke-width:0" /></g>  <g
     style="font-style:normal;font-variant:normal;font-weight:normal;font-stretch:normal;letter-spacing:normal;word-spacing:normal;text-anchor:start;fill:none;stroke:#000000;stroke-linecap:butt;stroke-linejoin:miter;stroke-miterlimit:10.43299961;stroke-opacity:1;stroke-dasharray:none;stroke-dashoffset:0"
     ns0:preamble=""
     ns0:text="\\[{\\rm T}\\]"
     word-spacing="normal"
     letter-spacing="normal"
     font-size-adjust="none"
     font-stretch="normal"
     font-weight="normal"
     font-variant="normal"
     font-style="normal"
     stroke-miterlimit="10.433"
     xml:space="preserve"
     transform="matrix(1.7966666,0,0,-1.7966666,-542.30133,1427.4678)"
     id="g7200"><path
       id="path7202"
       d="m 398.32,713.85 h -6.08 l -0.19,-2.24 h 0.25 c 0.14,1.6 0.28,1.93 1.79,1.93 0.18,0 0.43,0 0.53,-0.02 0.21,-0.04 0.21,-0.15 0.21,-0.37 v -5.24 c 0,-0.34 0,-0.48 -1.04,-0.48 h -0.4 v -0.31 c 0.41,0.04 1.42,0.04 1.88,0.04 0.46,0 1.48,0 1.89,-0.04 v 0.31 h -0.4 c -1.04,0 -1.04,0.14 -1.04,0.48 v 5.24 c 0,0.19 0,0.33 0.18,0.37 0.11,0.02 0.38,0.02 0.57,0.02 1.5,0 1.65,-0.33 1.79,-1.93 h 0.25 z"
       inkscape:connector-curvature="0"
       style="fill:#000000;stroke-width:0" /></g>  <path
     inkscape:connector-curvature="0"
     id="path3786-4-3-7-68-8"
     d="m 59.44052,103.12473 c 6.47119,10.54155 6.47119,10.54155 6.47119,10.54155"
     style="opacity:0.5;fill:none;stroke:#666666;stroke-width:0.99458724px;stroke-linecap:butt;stroke-linejoin:miter;stroke-opacity:1" />
  <g
     style="font-style:normal;font-variant:normal;font-weight:normal;font-stretch:normal;letter-spacing:normal;word-spacing:normal;text-anchor:start;fill:none;stroke:#000000;stroke-linecap:butt;stroke-linejoin:miter;stroke-miterlimit:10.43299961;stroke-opacity:1;stroke-dasharray:none;stroke-dashoffset:0"
     ns0:preamble=""
     ns0:text="\\[{\\rm R}\\]"
     word-spacing="normal"
     letter-spacing="normal"
     font-size-adjust="none"
     font-stretch="normal"
     font-weight="normal"
     font-variant="normal"
     font-style="normal"
     stroke-miterlimit="10.433"
     xml:space="preserve"
     transform="matrix(1.7966666,0,0,-1.7966666,-591.67092,1459.96)"
     id="g7884"><path
       style="fill:#000000;stroke-width:0"
       inkscape:connector-curvature="0"
       id="path7886"
       d="m 395.95,710.5 0.09,0.03 0.09,0.02 0.08,0.03 0.09,0.03 0.09,0.03 0.08,0.03 0.08,0.04 0.08,0.04 0.08,0.04 0.07,0.04 0.07,0.04 0.07,0.05 0.07,0.04 0.07,0.05 0.06,0.05 0.06,0.05 0.06,0.05 0.05,0.06 0.06,0.05 0.04,0.06 0.05,0.06 0.04,0.06 0.04,0.06 0.03,0.07 0.03,0.06 0.03,0.07 0.03,0.06 0.01,0.07 0.02,0.07 0.01,0.07 0.01,0.07 0,0.07 c 0,0.96 -1.13,1.79 -2.6,1.79 h -3.12 v -0.31 h 0.24 c 0.76,0 0.78,-0.11 0.78,-0.46 v -5.24 c 0,-0.36 -0.02,-0.47 -0.78,-0.47 h -0.24 v -0.31 c 0.36,0.04 1.06,0.04 1.45,0.04 0.39,0 1.1,0 1.45,-0.04 v 0.31 h -0.23 c -0.77,0 -0.79,0.11 -0.79,0.47 v 2.51 0.22 2.58 c 0,0.22 0,0.34 0.22,0.37 0.1,0.02 0.39,0.02 0.58,0.02 0.9,0 2.02,-0.04 2.02,-1.48 0,-0.68 -0.24,-1.49 -1.72,-1.49 h -1.1 v -0.22 h 1.14 c 0.16,0 0.58,0 0.93,-0.33 0.38,-0.36 0.38,-0.67 0.38,-1.34 0,-0.64 0,-1.04 0.4,-1.42 0.41,-0.35 0.96,-0.41 1.26,-0.41 0.77,0 0.94,0.81 0.94,1.09 0,0.06 0,0.17 -0.13,0.17 -0.1,0 -0.1,-0.09 -0.12,-0.16 -0.05,-0.71 -0.4,-0.89 -0.65,-0.89 -0.49,0 -0.57,0.51 -0.71,1.43 l -0.13,0.8 c -0.18,0.64 -0.66,0.96 -1.21,1.15 z" /></g>  <g
     style="font-style:normal;font-variant:normal;font-weight:normal;font-stretch:normal;letter-spacing:normal;word-spacing:normal;text-anchor:start;fill:none;stroke:#000000;stroke-linecap:butt;stroke-linejoin:miter;stroke-miterlimit:10.43299961;stroke-opacity:1;stroke-dasharray:none;stroke-dashoffset:0"
     ns0:preamble=""
     ns0:text="\\[{\\rm F}\\]"
     text-anchor="start"
     word-spacing="normal"
     letter-spacing="normal"
     font-size-adjust="none"
     font-stretch="normal"
     font-weight="normal"
     font-variant="normal"
     font-style="normal"
     fill-opacity="1"
     fill-rule="evenodd"
     fill="none"
     stroke-opacity="1"
     stroke-dashoffset="0"
     stroke-dasharray="none"
     stroke-miterlimit="10.433"
     stroke-linejoin="miter"
     stroke-linecap="butt"
     stroke="black"
     xml:space="preserve"
     transform="matrix(1.7966666,0,0,-1.7966666,-463.67863,1379.3994)"
     id="g3263"><path
       id="path3265"
       fill="black"
       stroke-width="0"
       d="M397.83,713.88 H392.36 V713.57 H392.6 C393.37,713.57,393.39,713.46,393.39,713.1 V707.9 C393.39,707.54,393.37,707.43,392.6,707.43 H392.36 V707.12 C392.71,707.16,393.49,707.16,393.88,707.16 C394.28,707.16,395.19,707.16,395.55,707.12 V707.43 H395.22 C394.27,707.43,394.27,707.56,394.27,707.91 V710.35 H395.13 C396.08,710.35,396.18,710.04,396.18,709.19 H396.43 V711.82 H396.18 C396.18,710.99,396.08,710.66,395.13,710.66 H394.27 V713.17 C394.27,713.5,394.29,713.57,394.76,713.57 H395.96 C397.45,713.57,397.7,713.02,397.86,711.65 H398.11 Z " /></g></svg>
